<!-- Portada del álbum "Capítulos" - Virginia Ramírez -->
<svg width="300" height="300" viewBox="0 0 300 300" fill="none" xmlns="http://www.w3.org/2000/svg">
  <!-- Background -->
  <rect width="300" height="300" fill="#0a0a0a"/>
  
  <!-- Geometric pattern background -->
  <rect x="0" y="0" width="300" height="300" fill="url(#bgPattern)"/>
  
  <!-- Central circle/vinyl -->
  <circle cx="150" cy="150" r="120" fill="none" stroke="url(#vinylGradient)" stroke-width="8"/>
  <circle cx="150" cy="150" r="40" fill="#1a1a1a"/>
  <circle cx="150" cy="150" r="15" fill="#7B3FE4"/>
  
  <!-- Music waves -->
  <path d="M50 80 Q75 60 100 80 T150 80 T200 80 T250 80" stroke="#E73C7E" stroke-width="2" fill="none" opacity="0.7"/>
  <path d="M50 220 Q75 200 100 220 T150 220 T200 220 T250 220" stroke="#7B3FE4" stroke-width="2" fill="none" opacity="0.7"/>
  
  <!-- Text -->
  <text x="150" y="110" font-family="Arial" font-size="28" fill="#ffffff" text-anchor="middle" font-weight="bold" letter-spacing="2px">CAPÍTULOS</text>
  
  <!-- Artist name -->
  <text x="150" y="140" font-family="Arial" font-size="16" fill="#7B3FE4" text-anchor="middle" font-weight="600">VIRGINIA RAMÍREZ</text>
  
  <!-- Year -->
  <text x="150" y="260" font-family="Arial" font-size="14" fill="#cccccc" text-anchor="middle">2024</text>
  
  <!-- NFT badge -->
  <rect x="20" y="20" width="60" height="25" rx="12" fill="url(#nftGradient)"/>
  <text x="50" y="37" font-family="Arial" font-size="12" fill="#ffffff" text-anchor="middle" font-weight="bold">NFT</text>
  
  <!-- Music notes decoration -->
  <text x="50" y="280" font-family="Arial" font-size="20" fill="#E73C7E" opacity="0.8">♪</text>
  <text x="250" y="40" font-family="Arial" font-size="18" fill="#7B3FE4" opacity="0.8">♫</text>
  <text x="240" y="270" font-family="Arial" font-size="16" fill="#ffffff" opacity="0.6">🎼</text>
  
  <!-- Gradients -->
  <defs>
    <linearGradient id="bgPattern" x1="0%" y1="0%" x2="100%" y2="100%">
      <stop offset="0%" style="stop-color:#1a1a1a"/>
      <stop offset="100%" style="stop-color:#2d2d2d"/>
    </linearGradient>
    <linearGradient id="vinylGradient" x1="0%" y1="0%" x2="100%" y2="100%">
      <stop offset="0%" style="stop-color:#7B3FE4"/>
      <stop offset="100%" style="stop-color:#E73C7E"/>
    </linearGradient>
    <linearGradient id="nftGradient" x1="0%" y1="0%" x2="100%" y2="100%">
      <stop offset="0%" style="stop-color:#28a745"/>
      <stop offset="100%" style="stop-color:#20c997"/>
    </linearGradient>
  </defs>
</svg>
