<?xml version="1.0" encoding="UTF-8" standalone="no"?>
<!-- Created with Inkscape (http://www.inkscape.org/) -->

<svg
   version="1.1"
   id="svg1"
   width="600"
   height="600"
   viewBox="0 0 600 600"
   sodipodi:docname="logo-dagklassical-orig-001.svg"
   inkscape:version="1.4.2 (ebf0e94, 2025-05-08)"
   xmlns:inkscape="http://www.inkscape.org/namespaces/inkscape"
   xmlns:sodipodi="http://sodipodi.sourceforge.net/DTD/sodipodi-0.dtd"
   xmlns="http://www.w3.org/2000/svg"
   xmlns:svg="http://www.w3.org/2000/svg">
  <sodipodi:namedview
     id="namedview1"
     pagecolor="#ffffff"
     bordercolor="#666666"
     borderopacity="1.0"
     inkscape:showpageshadow="2"
     inkscape:pageopacity="0.0"
     inkscape:pagecheckerboard="0"
     inkscape:deskcolor="#d1d1d1"
     inkscape:zoom="0.66333333"
     inkscape:cx="300"
     inkscape:cy="299.24623"
     inkscape:window-width="1332"
     inkscape:window-height="743"
     inkscape:window-x="34"
     inkscape:window-y="0"
     inkscape:window-maximized="1"
     inkscape:current-layer="g1">
    <inkscape:page
       x="0"
       y="0"
       width="600"
       height="600"
       id="page2"
       margin="0"
       bleed="0" />
  </sodipodi:namedview>
  <!-- Definición del filtro de sombra -->
  <defs
     id="defs1">
    <filter id="dropShadowSubtle" x="-20%" y="-20%" width="140%" height="140%">
      <feDropShadow dx="1" dy="1" stdDeviation="1" flood-color="#000000" flood-opacity="0.3"/>
    </filter>
  </defs>
  <!-- Aplicación del filtro al grupo principal -->
  <g
     id="g1"
     transform="translate(-610)"
     filter="url(#dropShadowSubtle)"> <!-- Este es el filtro aplicado al grupo -->
    <rect
       style="opacity:1;fill:#ffffff;fill-opacity:1;stroke-width:3.03585;stroke-linecap:square"
       id="rect1"
       width="600"
       height="600"
       x="610"
       y="0" />
    <path
       style="font-weight:600;font-size:58.4754px;line-height:0;font-family:Montserrat;-inkscape-font-specification:'Montserrat, Semi-Bold';text-align:center;letter-spacing:2.32px;text-anchor:middle;stroke-width:0.685258"
       d="m 743.68471,527.89056 -0.40933,-9.00521 21.46047,-22.27913 h 8.53741 l -17.835,18.94603 -4.21023,4.61956 z m -6.78315,9.64844 v -40.93278 h 7.6018 V 537.539 Z m 28.53599,0 -15.6714,-18.65365 5.02888,-5.55516 19.53078,24.20881 z m 16.41247,0 v -40.93278 h 7.6018 v 34.50049 h 21.402 v 6.43229 z m 31.61609,0 18.41975,-40.93278 h 7.48485 l 18.47823,40.93278 h -7.95266 l -15.84683,-36.89798 h 3.04072 L 821.30181,537.539 Z m 8.47893,-9.47301 2.04664,-5.90601 h 22.1037 l 2.04664,5.96449 z m 56.11728,10.05777 q -4.79498,0 -9.18063,-1.34494 -4.38566,-1.40341 -6.95858,-3.567 l 2.6314,-5.90601 q 2.45596,1.92968 6.08144,3.21614 3.62547,1.28646 7.42637,1.28646 3.21615,0 5.20431,-0.7017 1.98817,-0.70171 2.92377,-1.87122 0.93561,-1.22798 0.93561,-2.74834 0 0 -1.34494,-2.98224 -1.34494,-1.16951 -3.50853,-1.81274 -2.10511,-0.70171 -4.7365,-1.28646 -2.57292,-0.58475 -5.20432,-1.34493 -2.57291,-0.81866 -4.7365,-2.04664 -2.10512,-1.28646 -3.45005,-3.39158 -1.34494,-2.10511 -1.34494,-5.37973 0,-3.3331 1.75427,-6.08144 1.81273,-2.80682 5.43821,-4.44414 3.68395,-1.69578 9.29759,-1.69578 3.68395,0 7.30942,0.9356 3.62548,0.93561 6.31535,2.68987 l -2.3975,5.90602 q -2.74834,-1.63731 -5.67211,-2.39749 -2.92377,-0.81866 -5.61364,-0.81866 -3.15767,0 -5.14583,0.76018 -1.92969,0.76018 -2.8653,1.98817 -0.87713,1.22798 -0.87713,2.80681 0,1.87122 1.28646,3.04072 1.34493,1.11104 3.45005,1.75427 2.16359,0.64323 4.79498,1.28646 2.63139,0.58475 5.20431,1.34493 2.63139,0.76018 4.73651,1.98816 2.16359,1.22799 3.45005,3.3331 1.34493,2.10512 1.34493,5.32126 0,3.27462 -1.81274,6.08144 -1.75426,2.74835 -5.43821,4.44413 -3.68395,1.63732 -9.29759,1.63732 z m 39.10102,0 q -4.79499,0 -9.18064,-1.34494 -4.38566,-1.40341 -6.95857,-3.567 l 2.63139,-5.90601 q 2.45597,1.92968 6.08144,3.21614 3.62548,1.28646 7.42638,1.28646 3.21614,0 5.20431,-0.7017 1.98816,-0.70171 2.92377,-1.87122 0.9356,-1.22798 0.9356,-2.74834 0,-1.87121 -1.34493,-2.98224 -1.34493,-1.16951 -3.50852,-1.81274 -2.10512,-0.70171 -4.73651,-1.28646 -2.57292,-0.58475 -5.20431,-1.34493 -2.57292,-0.81866 -4.73651,-2.04664 -2.10511,-1.28646 -3.45005,-3.39158 -1.34493,-2.10511 -1.34493,-5.37973 0,-3.3331 1.75426,-6.08144 1.81274,-2.80682 5.43821,-4.44414 3.68395,-1.69578 9.29759,-1.69578 3.68395,0 7.30943,0.9356 3.62547,0.93561 6.31534,2.68987 l -2.39749,5.90602 q -2.74835,-1.63731 -5.67212,-2.39749 -2.92377,-0.81866 -5.61364,-0.81866 -3.15767,0 -5.14583,0.76018 -1.92969,0.76018 -2.86529,1.98817 -0.87714,1.22798 -0.87714,2.80681 0,1.87122 1.28646,3.04072 1.34494,1.11104 3.45005,1.75427 2.16359,0.64323 4.79498,1.28646 2.6314,0.58475 5.20431,1.34493 2.6314,0.76018 4.73651,1.98816 2.16359,1.22799 3.45005,3.3331 1.34493,2.10512 1.34493,5.32126 0,3.27462 -1.81273,6.08144 -1.75426,2.74835 -5.43821,4.44413 -3.68395,1.63732 -9.29759,1.63732 z m 26.41185,-0.58476 v -40.93278 h 7.6018 V 537.539 Z m 39.91957,0.58476 q -4.67803,0 -8.71284,-1.52036 -3.97632,-1.57884 -6.95857,-4.38566 -2.92377,-2.86529 -4.56108,-6.72467 -1.63731,-3.85938 -1.63731,-8.42046 0,-4.56108 1.63731,-8.42046 1.63731,-3.85937 4.61956,-6.66619 2.98224,-2.8653 6.95857,-4.38566 3.97633,-1.57883 8.71283,-1.57883 5.02889,0 9.18064,1.75426 4.15176,1.69579 7.01705,5.08736 l -4.91193,4.61956 q -2.22207,-2.39749 -4.97041,-3.567 -2.74835,-1.22799 -5.96449,-1.22799 -3.21615,0 -5.90602,1.05256 -2.63139,1.05256 -4.61955,2.98225 -1.92969,1.92968 -3.04073,4.56108 -1.05255,2.63139 -1.05255,5.78906 0,3.15767 1.05255,5.78907 1.11104,2.63139 3.04073,4.56108 1.98816,1.92969 4.61955,2.98224 2.68987,1.05256 5.90602,1.05256 3.21614,0 5.96449,-1.16951 2.74834,-1.22798 4.97041,-3.68395 l 4.91193,4.67803 q -2.86529,3.3331 -7.01705,5.08736 -4.15175,1.75427 -9.23911,1.75427 z m 18.69294,-0.58476 18.4198,-40.93278 h 7.4848 l 18.4782,40.93278 h -7.9526 l -15.8468,-36.89798 h 3.0407 l -15.7884,36.89798 z m 8.479,-9.47301 2.0466,-5.96449 h 22.1037 l 2.0466,5.96449 z m 43.4281,9.47301 v -40.93278 h 7.6018 v 34.50049 h 21.402 v 6.43229 z"
       id="text1"
       aria-label="KLASSICAL" />
    <rect
       style="opacity:1;fill:#760f05;fill-opacity:1;stroke-width:1.88223;stroke-linecap:square"
       id="rect2"
       width="372"
       height="372"
       x="724"
       y="114" />
    <path
       d="M 912.08622,248.4679 H 871.6748 v 149.6719 h 44.68776 q 15.181,0 25.2304,-4.70397 10.0494,-4.91779 14.96719,-14.32574 5.13161,-9.62177 5.13161,-23.73369 v -58.79967 q 0,-14.53956 -5.77306,-25.23041 -5.55924,-10.90467 -16.67772,-16.89154 -10.90467,-5.98688 -27.15476,-5.98688 z m 0.64145,138.98105 h -28.8653 v -128.2902 h 30.36202 q 12.6152,0 20.31261,4.70397 7.69741,4.70398 11.3323,12.61521 3.63489,7.69741 3.63489,16.89154 v 64.1451 q 0,7.26978 -2.35199,13.04284 -2.13817,5.55924 -6.84214,9.40795 -4.49016,3.63488 -11.3323,5.55924 -6.84214,1.92435 -16.25009,1.92435 z m 174.19113,10.69085 -48.7503,-149.6719 h -11.3323 l -48.10881,149.6719 h 12.82902 l 16.89159,-52.38516 h 48.5364 l 17.3192,52.38516 z m -75.2636,-64.1451 20.7403,-67.13854 21.3817,67.13854 z m 160.7203,-72.27015 3.6349,-8.12504 q -4.4902,-2.35199 -9.408,-3.84871 -4.9178,-1.71053 -10.2632,-2.35198 -5.1316,-0.85527 -10.6909,-0.85527 -13.4704,0 -22.8784,5.34542 -9.1941,5.13161 -14.1119,14.96719 -4.704,9.83558 -4.704,23.51987 v 67.35236 q 0,13.8981 5.1316,23.51987 5.1316,9.40795 14.3258,14.32574 9.1941,4.70397 21.3817,4.70397 7.0559,0 13.6843,-1.71053 6.6283,-1.49672 12.1875,-4.27634 5.7731,-2.99344 9.6218,-7.05597 l 0.8553,10.90467 h 10.9046 v -64.1451 h -43.191 l 4.2763,11.75994 h 27.5824 v 12.40138 q 0,7.05596 -2.7796,12.82902 -2.7796,5.55924 -7.6974,9.62177 -4.9178,3.8487 -11.5461,5.98687 -6.6284,2.13817 -14.3258,2.13817 -9.1941,0 -15.6086,-3.63489 -6.2007,-3.63489 -9.408,-10.47703 -3.2072,-6.84214 -3.2072,-16.46391 V 288.6655 q 0,-11.11849 3.8487,-17.96063 4.0625,-7.05596 11.5461,-10.26322 7.6974,-3.20725 18.1745,-3.20725 3.6349,0 7.2697,0.42763 3.8487,0.42764 7.6975,1.49672 3.8487,0.85527 7.6974,2.5658 z"
       id="text2"
       style="font-size:213.817px;line-height:0;font-family:'Advent Pro';-inkscape-font-specification:'Advent Pro, Normal';text-align:center;letter-spacing:8.48316px;text-anchor:middle;fill:#ffffff;stroke-width:2.50566"
       transform="scale(0.8819018,1.1339131)"
       aria-label="DAG" />
  </g>
</svg>
