<svg width="128" height="128" viewBox="0 0 128 128" fill="none" xmlns="http://www.w3.org/2000/svg">
  <!-- Background -->
  <rect width="128" height="128" rx="24" fill="url(#gradient1)"/>
  
  <!-- Musical Note -->
  <path d="M45 85C45 87.761 42.761 90 40 90C37.239 90 35 87.761 35 85C35 82.239 37.239 80 40 80C42.761 80 45 82.239 45 85Z" fill="white"/>
  <path d="M85 75C85 77.761 82.761 80 80 80C77.239 80 75 77.761 75 75C75 72.239 77.239 70 80 70C82.761 70 85 72.239 85 75Z" fill="white"/>
  <path d="M45 85V45L85 35V75" stroke="white" stroke-width="4" stroke-linecap="round"/>
  
  <!-- Blockchain Elements -->
  <rect x="20" y="20" width="8" height="8" rx="2" fill="white" opacity="0.6"/>
  <rect x="100" y="20" width="8" height="8" rx="2" fill="white" opacity="0.6"/>
  <rect x="20" y="100" width="8" height="8" rx="2" fill="white" opacity="0.6"/>
  <rect x="100" y="100" width="8" height="8" rx="2" fill="white" opacity="0.6"/>
  
  <!-- Connecting Lines -->
  <path d="M28 24L100 24" stroke="white" stroke-width="1" opacity="0.3"/>
  <path d="M24 28L24 100" stroke="white" stroke-width="1" opacity="0.3"/>
  <path d="M104 28L104 100" stroke="white" stroke-width="1" opacity="0.3"/>
  <path d="M28 104L100 104" stroke="white" stroke-width="1" opacity="0.3"/>
  
  <!-- Gradient Definition -->
  <defs>
    <linearGradient id="gradient1" x1="0%" y1="0%" x2="100%" y2="100%">
      <stop offset="0%" style="stop-color:#7B3FE4"/>
      <stop offset="100%" style="stop-color:#E73C7E"/>
    </linearGradient>
  </defs>
</svg>
